<?xml version="1.0" encoding="UTF-8"?>
<svg id="Layer_2" data-name="Layer 2" xmlns="http://www.w3.org/2000/svg" viewBox="0 0 31.8 31">
  <defs>
    <style>
      .cls-1 {
        fill: #fff;
      }
    </style>
  </defs>
  <g id="PC">
    <g>
      <path class="cls-1" d="M14.61,15.85h-3.39c.21-.58,.38-1.18,.5-1.79,.2-.69,.4-1.39,.6-1.99,.22-.54,.39-1.1,.49-1.69,.07,.33,.17,.67,.3,.99,.17,.38,.31,.78,.4,1.19,.1,.4,.3,.79,.4,1.19,.17,.34,.31,.72,.4,1.09,.1,.4,.2,.7,.3,.99Z"/>
      <path class="cls-1" d="M26.23,0H5.53C2.45,.03-.03,2.56,0,5.64V25.36H0c0,3.12,2.54,5.65,5.66,5.64H26.15c3.12,0,5.64-2.53,5.64-5.64V5.57c0-3.08-2.49-5.57-5.56-5.57Zm-6.76,21.81h-2.78c-.1,0-.19-.09-.2-.2l-1.09-3.08h-4.98l-.99,3.08c0,.1-.1,.2-.3,.2h-2.38c-.1,0-.19-.09-.2-.2l4.27-12.32c.1-.1,.1-.2,.1-.4,.08-.29,.12-.59,.1-.89l.1-.1h3.38c.1,0,.2,0,.2,.1l4.86,13.61c0,.1,0,.2-.1,.2Zm4.57-.1c0,.11-.1,.19-.2,.2h-2.58c-.2,0-.2-.1-.2-.29V11.49c0-.11,.1-.19,.2-.2h2.58c.1,0,.19,.09,.2,.2v10.23Zm.1-13.21c.05,.45-.14,.91-.5,1.19-.31,.32-.75,.5-1.19,.49-.45-.02-.87-.19-1.19-.49-.28-.33-.42-.76-.4-1.19,.02-.45,.19-.87,.5-1.19,.65-.66,1.71-.67,2.37-.02l.02,.02c.32,.31,.46,.75,.4,1.19Z"/>
    </g>
  </g>
</svg>