<?xml version="1.0" encoding="UTF-8"?>
<svg id="Layer_2" data-name="Layer 2" xmlns="http://www.w3.org/2000/svg" viewBox="0 0 27.33 31">
  <defs>
    <style>
      .cls-1 {
        fill: #fff;
      }
    </style>
  </defs>
  <g id="PC">
    <path class="cls-1" d="M0,0L2.49,27.9l11.16,3.1,11.19-3.1L27.33,0H0ZM5.09,5.7H13.66v3.42H5.4l-.31-3.42Zm.62,6.93h7.95v3.42H6.01l-.31-3.42Zm.94,10.51l-.48-5.37h3.44l.24,2.73,3.81,1.03h0s0,3.56,0,3.56h.01v-3.56h0s3.8-1.03,3.8-1.03l.4-4.44h-4.2v-3.42h4.5l.31-3.5h-4.81v-3.42h8.56l-.62,6.93-.08,.92-.8,9.01-.05,.58-7,1.94h0s-.02,0-.02,0l-7.01-1.95Z"/>
  </g>
</svg>