<?xml version="1.0" encoding="UTF-8"?>
<svg id="Layer_2" data-name="Layer 2" xmlns="http://www.w3.org/2000/svg" viewBox="0 0 21.47 31">
  <defs>
    <style>
      .cls-1 {
        fill: #fff;
        fill-rule: evenodd;
      }
    </style>
  </defs>
  <g id="PC">
    <path class="cls-1" d="M19.1,10.74c1.44-1.09,2.37-2.82,2.37-4.76,0-3.3-2.67-5.97-5.97-5.97H5.97C2.67,0,0,2.67,0,5.97c0,1.95,.93,3.67,2.37,4.76-1.44,1.09-2.37,2.82-2.37,4.76s.93,3.67,2.37,4.76c-1.44,1.09-2.37,2.82-2.37,4.76,0,3.3,2.67,5.97,5.97,5.97s5.97-2.67,5.97-5.97v-4.73c.99,.74,2.23,1.18,3.56,1.18,3.3,0,5.97-2.67,5.97-5.97,0-1.95-.93-3.67-2.37-4.76Zm-9.57,14.29c0,1.97-1.59,3.56-3.56,3.56s-3.56-1.59-3.56-3.56,1.59-3.55,3.54-3.56h.01s3.56,0,3.56,0v3.56Zm0-9.54h0v3.57h-3.57c-1.96,0-3.54-1.6-3.54-3.56s1.59-3.56,3.56-3.56h3.56v3.55Zm0-5.96h-3.56c-1.97,0-3.56-1.59-3.56-3.56s1.59-3.56,3.56-3.56h3.56v7.12Zm5.97,9.53c-1.96,0-3.55-1.59-3.56-3.55h0c0-1.98,1.6-3.57,3.56-3.57s3.56,1.59,3.56,3.56-1.59,3.56-3.56,3.56Zm0-9.53h-3.56V2.41h3.56c1.97,0,3.56,1.59,3.56,3.56s-1.59,3.56-3.56,3.56Z"/>
  </g>
</svg>