<?xml version="1.0" encoding="UTF-8"?>
<svg id="Layer_2" data-name="Layer 2" xmlns="http://www.w3.org/2000/svg" viewBox="0 0 35.2 33.91">
  <defs>
    <style>
      .cls-1 {
        fill: #fff;
      }
    </style>
  </defs>
  <g id="PC">
    <g>
      <path class="cls-1" d="M17.96,29.09c-.23-.05-.46-.13-.69-.19-.06-.02-.12-.03-.17-.05-.22-.07-.44-.14-.66-.22-.03-.01-.06-.02-.09-.03-.2-.07-.39-.14-.59-.22-.05-.02-.11-.04-.16-.06-.21-.08-.42-.17-.63-.26-.04-.02-.08-.04-.13-.06-.18-.08-.36-.16-.53-.25-.05-.02-.1-.05-.15-.07-.14-.07-.28-.14-.41-.21-.09-.05-.18-.09-.28-.14-.17-.09-.33-.18-.49-.28-.06-.03-.11-.06-.17-.09-.22-.13-.43-.26-.64-.39-.06-.04-.12-.08-.17-.12-.15-.1-.31-.2-.46-.3-.05-.03-.1-.07-.15-.1-.15-.1-.29-.21-.43-.31-.07-.05-.13-.1-.19-.15-.13-.1-.26-.2-.39-.31-.06-.05-.12-.09-.17-.14-.16-.14-.33-.27-.49-.41-.02-.01-.04-.03-.05-.04-.17-.15-.34-.31-.51-.47-.05-.05-.1-.09-.14-.14-.12-.12-.25-.24-.37-.36-.05-.05-.1-.1-.14-.14-.15-.16-.3-.32-.45-.48,0,0-.02-.02-.02-.02-.16-.17-.31-.35-.46-.52-.04-.05-.08-.09-.12-.14-.11-.13-.22-.27-.33-.41-.04-.05-.08-.1-.12-.15-.13-.17-.26-.34-.38-.51C3.16,16.64,1.92,10.18,4.67,4.88l-2.43,3.09C-.88,12.44-.49,18.27,1.89,23.03c.06,.11,.12,.23,.17,.34,.04,.07,.07,.14,.11,.21,.02,.04,.05,.08,.07,.12,.04,.08,.08,.15,.12,.22,.07,.13,.15,.26,.23,.39,.04,.07,.09,.14,.13,.21,.09,.14,.17,.28,.26,.41,.04,.06,.07,.12,.11,.17,.12,.19,.25,.37,.38,.55,0,0,0,.01,.01,.01,.02,.03,.04,.06,.06,.09,.11,.16,.23,.31,.35,.46,.04,.06,.09,.11,.13,.17,.11,.13,.21,.26,.32,.4,.04,.05,.08,.1,.12,.15,.15,.17,.3,.34,.45,.51,0,0,0,0,0,0,0,0,.01,.01,.02,.02,.15,.16,.3,.32,.46,.48,.05,.05,.1,.1,.15,.15,.12,.12,.24,.24,.36,.36,.05,.05,.1,.1,.15,.14,.16,.15,.33,.31,.5,.45,0,0,0,0,0,0,.03,.03,.06,.05,.09,.07,.15,.13,.3,.26,.45,.38,.06,.05,.13,.1,.19,.15,.12,.1,.25,.2,.38,.29,.07,.05,.13,.1,.2,.15,.14,.1,.28,.2,.42,.3,.05,.04,.1,.07,.15,.11,.01,.01,.03,.02,.04,.03,.14,.09,.27,.18,.41,.27,.06,.04,.12,.08,.18,.12,.21,.13,.43,.27,.64,.39,.06,.03,.12,.07,.18,.1,.16,.09,.32,.18,.48,.27,.09,.05,.18,.09,.27,.14,.12,.06,.23,.12,.35,.18,.03,.01,.05,.03,.08,.04,.05,.02,.09,.04,.14,.07,.18,.09,.36,.17,.55,.25,.04,.02,.08,.03,.12,.05,.21,.09,.42,.18,.64,.27,.05,.02,.1,.04,.16,.06,.2,.08,.4,.15,.6,.22,.03,0,.05,.02,.08,.03,.22,.08,.45,.15,.67,.22,.05,.02,.11,.03,.16,.05,.23,.07,.46,.15,.69,.2,15.07,2.75,19.45-9.06,19.45-9.06-3.68,4.79-10.2,6.05-16.39,4.65Z"/>
      <path class="cls-1" d="M23.08,19.49c-.22-.06-.44-.12-.66-.19-.07-.02-.13-.04-.2-.06-.15-.05-.31-.1-.46-.16-.07-.03-.14-.05-.21-.08-.17-.06-.33-.13-.5-.2-.04-.02-.09-.04-.13-.06-.21-.09-.41-.18-.61-.28-.1-.05-.2-.1-.3-.16-.06-.03-.12-.06-.18-.09-.13-.07-.26-.14-.39-.22-.03-.02-.06-.03-.09-.05-.16-.09-.31-.19-.47-.28-.05-.03-.09-.06-.14-.09-.1-.07-.2-.13-.3-.2-.21-.15-.42-.3-.63-.46-.05-.04-.09-.07-.14-.11-2.19-1.73-3.93-4.09-4.75-6.77-.87-2.78-.68-5.9,.82-8.43l-1.84,2.6c-2.25,3.24-2.13,7.59-.37,11.02,.29,.58,.63,1.13,1,1.66,.34,.48,.71,1.06,1.16,1.45,.16,.18,.33,.35,.51,.52,.04,.04,.09,.09,.13,.13,.17,.16,.34,.32,.52,.48,0,0,.01,.01,.02,.02,0,0,0,0,0,0,.2,.17,.4,.34,.6,.5,.05,.03,.09,.07,.14,.11,.21,.16,.42,.31,.63,.46,0,0,.01,0,.02,.01,.09,.07,.19,.13,.29,.19,.05,.03,.09,.06,.14,.09,.15,.1,.31,.19,.47,.29,.02,.01,.04,.03,.07,.04,.14,.08,.27,.16,.41,.23,.05,.03,.1,.05,.15,.08,.1,.05,.19,.1,.29,.15,.01,0,.03,.01,.04,.02,.2,.1,.4,.19,.6,.28,.04,.02,.09,.04,.13,.05,.16,.07,.33,.14,.49,.2,.07,.03,.14,.05,.21,.08,.15,.06,.3,.11,.45,.16,.07,.02,.14,.04,.21,.07,.22,.07,.43,.15,.66,.19,11.64,1.93,14.32-7.03,14.32-7.03-2.42,3.49-7.11,5.15-12.12,3.85Z"/>
      <path class="cls-1" d="M24.8,12.86c.1,.04,.19,.07,.29,.1,.04,.01,.08,.03,.13,.04,.14,.04,.27,.09,.41,.12,6.43,1.24,8.17-3.3,8.63-3.97-1.53,2.2-4.09,2.73-7.24,1.96-.25-.06-.52-.15-.76-.24-.31-.11-.61-.23-.9-.38-.56-.27-1.09-.59-1.59-.97-2.82-2.14-4.57-6.21-2.73-9.54l-.99,1.37c-1.33,1.96-1.46,4.38-.54,6.54,.97,2.29,2.96,4.09,5.29,4.94Z"/>
    </g>
  </g>
</svg>