<?xml version="1.0" encoding="UTF-8"?>
<svg id="Layer_2" data-name="Layer 2" xmlns="http://www.w3.org/2000/svg" viewBox="0 0 31 31">
  <defs>
    <style>
      .cls-1 {
        fill: #fff;
      }
    </style>
  </defs>
  <g id="PC">
    <path class="cls-1" d="M29.03,0H1.97C.88,0,0,.88,0,1.97V29.03c0,1.09,.88,1.97,1.97,1.97H29.03c1.09,0,1.97-.88,1.97-1.97V1.97c0-1.09-.88-1.97-1.97-1.97Zm-12.06,23.75c0,2.95-1.73,4.29-4.26,4.29-2.28,0-3.93-1.53-4.6-2.95l2.32-1.4c.45,.79,1.13,1.4,2.11,1.4s1.48-.37,1.48-1.79V14.02h2.95v9.73Zm6.4,4.29c-2.62,0-4.1-1.32-4.93-2.95l2.21-1.48c.6,.99,1.26,1.93,2.65,1.93,1.17,0,1.78-.58,1.78-1.39,0-.96-.63-1.31-1.92-1.87l-.7-.3c-2.03-.86-3.38-1.95-3.38-4.24,0-2.11,1.61-3.72,4.13-3.72,1.79,0,3.08,.62,4,2.25l-2.19,1.41c-.48-.87-1-1.21-1.81-1.21s-1.35,.52-1.35,1.21c0,.84,.52,1.18,1.73,1.71l.7,.3c2.4,1.02,3.75,2.07,3.75,4.42,0,2.53-1.99,3.92-4.67,3.92Z"/>
  </g>
</svg>