<?xml version="1.0" encoding="UTF-8"?>
<svg id="Layer_2" data-name="Layer 2" xmlns="http://www.w3.org/2000/svg" viewBox="0 0 31.79 31">
  <defs>
    <style>
      .cls-1 {
        fill: #fff;
      }
    </style>
  </defs>
  <g id="PC">
    <g id="Layer_2-2" data-name="Layer 2">
      <g id="Surfaces">
        <g id="Photo_Surface" data-name="Photo Surface">
          <g id="Outline_no_shadow" data-name="Outline no shadow">
            <path class="cls-1" d="M13.98,11.5c.21,.35,.32,.76,.31,1.17,0,.58-.14,1.04-.42,1.36-.29,.34-.67,.58-1.09,.7-.49,.16-1.01,.24-1.52,.24h-.7c-.16,0-.33,0-.51-.02v-4.44c.1-.01,.28-.03,.54-.03,.26,0,.57-.01,.91-.01,.53-.02,1.06,.07,1.56,.27,.38,.15,.7,.42,.93,.76Z"/>
            <path class="cls-1" d="M26.16,0H5.63C2.52,0,0,2.52,0,5.63V25.37c0,3.11,2.52,5.63,5.63,5.63H26.16c3.11,0,5.63-2.52,5.63-5.63V5.63c0-3.11-2.52-5.63-5.63-5.63Zm-9.77,15.43c-.53,.74-1.27,1.3-2.13,1.61-.9,.34-1.89,.45-2.99,.45-.31,0-.53,0-.66-.01-.13,0-.32-.01-.57-.01v4.26c.01,.09-.05,.18-.14,.19-.02,0-.03,0-.05,0h-2.54c-.1,0-.15-.06-.15-.17V8.11c0-.1,.04-.15,.13-.15,.23,0,.43,0,.75-.01,.31,0,.65-.01,1.01-.02,.36,0,.75-.01,1.15-.02,.41,0,.81-.01,1.21-.01,1.08,0,1.99,.14,2.73,.41,.67,.23,1.28,.6,1.78,1.09,.43,.43,.76,.94,.97,1.5,.2,.55,.3,1.13,.3,1.72,0,1.14-.26,2.08-.79,2.82Zm9.36,5.16c-.37,.53-.88,.94-1.48,1.18-.65,.28-1.45,.43-2.4,.43-.6,0-1.21-.05-1.8-.17-.47-.08-.92-.23-1.35-.43-.1-.05-.15-.15-.15-.26v-2.3s.01-.09,.05-.12c.04-.02,.08-.02,.12,.01,.51,.3,1.06,.52,1.64,.65,.51,.13,1.03,.19,1.56,.2,.5,0,.86-.06,1.1-.19,.22-.1,.35-.32,.35-.56,0-.18-.11-.36-.32-.53-.21-.17-.65-.38-1.3-.62-.67-.23-1.3-.56-1.89-.96-.42-.29-.76-.67-1-1.12-.21-.42-.32-.88-.31-1.35,0-.56,.15-1.12,.45-1.6,.34-.53,.82-.95,1.39-1.21,.63-.31,1.41-.47,2.35-.47,.55,0,1.1,.04,1.64,.12,.39,.05,.78,.15,1.14,.31,.06,.02,.11,.06,.13,.12,.01,.05,.02,.11,.02,.16v2.15c0,.05-.02,.1-.06,.13-.06,.03-.13,.03-.18,0-.4-.21-.83-.36-1.27-.45-.49-.11-.98-.17-1.48-.17-.27,0-.54,.03-.8,.1-.17,.04-.31,.13-.42,.27-.07,.11-.11,.23-.11,.36,0,.12,.05,.25,.13,.34,.12,.15,.28,.27,.45,.35,.3,.16,.62,.31,.94,.44,.72,.24,1.4,.57,2.04,.97,.43,.27,.79,.65,1.05,1.1,.21,.42,.32,.89,.31,1.36,.01,.63-.17,1.24-.51,1.76Z"/>
          </g>
        </g>
      </g>
    </g>
  </g>
</svg>